<?xml version="1.0" encoding="UTF-8"?>
<svg width="600px" height="199px" viewBox="0 0 600 199" version="1.1" xmlns="http://www.w3.org/2000/svg" xmlns:xlink="http://www.w3.org/1999/xlink">
    <title>画板</title>
    <defs>
        <polygon id="path-1" points="0 147 596 147 596 0 0 0"></polygon>
    </defs>
    <g id="画板" stroke="none" stroke-width="1" fill="none" fill-rule="evenodd">
        <g id="编组" transform="translate(4.000000, 28.000000)">
            <path d="M205.363636,113.001479 C205.829641,112.699778 206.181054,112.474982 206.416348,112.322652 L205.128342,110.737244 C203.880061,111.796155 202.749427,112.661326 201.737968,113.341632 C201.34683,113.038452 200.957219,112.550407 200.567609,111.868622 C200.489687,111.717772 200.410237,111.605373 200.332315,111.528469 C201.580596,110.700271 202.944996,109.830663 204.427044,108.924082 L203.140565,107.338674 C202.983193,107.417057 202.789152,107.566428 202.556914,107.794183 C201.229183,108.77471 200.216196,109.491989 199.514897,109.943061 C199.047364,109.039438 198.695951,108.058911 198.462185,107 L196.708174,107.566428 C197.643239,110.812669 199.047364,113.415578 200.919022,115.378112 L192.731092,115.378112 C193.822002,114.322159 194.990833,112.58738 196.240642,110.170816 L196.240642,108.360611 L188.286478,108.360611 L188.286478,110.170816 L194.13369,110.170816 C193.588235,111.379098 192.848739,112.511955 191.912147,113.567907 C191.67838,113.266207 191.328495,112.852107 190.859435,112.322652 C190.391902,111.717772 190.040489,111.303673 189.808251,111.077397 L188.286478,112.207296 C189.143621,113.113877 189.922842,114.020458 190.625668,114.92704 C189.611154,115.832142 188.402597,116.663298 187,117.41755 C187.623377,118.02243 188.090909,118.548928 188.402597,119 C190.040489,117.870101 191.365164,116.775696 192.379679,115.718265 L192.379679,117.075918 L201.268908,117.075918 L201.268908,115.718265 C202.439267,116.775696 203.959511,117.870101 205.829641,119 C205.987013,118.548928 206.375095,117.944047 207,117.191274 C205.440031,116.437022 204.077158,115.567414 202.906799,114.586887 C203.450726,114.209761 204.269672,113.680306 205.363636,113.001479" id="Fill-1" fill="#000000"></path>
            <path d="M201.882579,127.983139 L199.88304,127.109713 C198.862522,128.927808 197.920387,130.308478 197.058173,131.254571 L193.294244,131.254571 L194.705141,130.492282 C194.311688,129.909523 193.332667,128.745429 191.765004,127 L190.235764,128.091427 C190.861293,128.818095 191.765004,129.873902 192.940752,131.254571 L186,131.254571 L186,133 L206,133 L206,131.254571 L199.411204,131.254571 C200.353339,130.237236 201.177131,129.147233 201.882579,127.983139" id="Fill-3" fill="#000000"></path>
            <path d="M189,121.19339 C188.035253,120.038745 186.990242,118.808732 185.866541,117.498828 L185.144161,118.07615 L185.144161,114.499163 L187.91407,114.499163 L187.91407,112.654142 L185.144161,112.654142 L185.144161,107 L183.095058,107 L183.095058,112.654142 L179.240793,112.654142 L179.240793,114.499163 L182.975449,114.499163 C182.012276,118.730348 180.685552,122.114393 179,124.65431 C179.481586,125.808955 179.80107,126.695288 179.963173,127.30728 C181.329241,124.924129 182.372679,122.307336 183.095058,119.459915 L183.095058,134 L185.144161,134 L185.144161,119.57749 C186.02707,120.653752 186.790368,121.615453 187.432483,122.461088 L189,121.19339 Z" id="Fill-5" fill="#000000"></path>
            <mask id="mask-2" fill="white">
                <use xlink:href="#path-1"></use>
            </mask>
            <g id="Clip-8"></g>
            <path d="M190.904702,124.101616 L201.096761,124.101616 L201.096761,120.899934 L190.904702,120.899934 L190.904702,124.101616 Z M189,126 L203,126 L203,119 L189,119 L189,126 Z" id="Fill-7" fill="#000000" mask="url(#mask-2)"></path>
            <path d="M249,109.864214 L254.318252,109.864214 L254.318252,113.828715 L249.946325,113.828715 L249.946325,130.151251 L251.835886,130.151251 L251.835886,115.810204 L254.318252,115.810204 L254.318252,134 L256.326683,134 L256.326683,115.810204 L258.927918,115.810204 L258.927918,126.421299 C259.16257,127.511804 258.335115,127.900182 256.445553,127.589479 C256.522741,127.743307 256.681748,128.445434 256.917943,129.68672 C259.755373,129.843594 261.053675,128.868842 260.81748,126.771601 L260.81748,113.828715 L256.326683,113.828715 L256.326683,109.864214 L262,109.864214 L262,108 L249,108 L249,109.864214 Z" id="Fill-9" fill="#000000" mask="url(#mask-2)"></path>
            <path d="M236.416,116.607 C236.15,116.861 235.882,117.117 235.584,117.393 C236.13,116.893 236.398,116.641 236.416,116.607" id="Fill-10" fill="#000000" mask="url(#mask-2)"></path>
            <path d="M247.079937,118.375452 C247.079937,122.510479 246.840125,125.459781 246.360502,127.223359 C245.87931,128.983935 244.760188,130.821057 243,132.736228 C243.159875,132.890822 243.399687,133.042415 243.719436,133.197009 C244.200627,133.579743 244.518809,133.845406 244.680251,134 C246.518809,131.933237 247.680251,129.903997 248.159875,127.91228 C248.719436,125.920563 249,122.702596 249,118.25838 L249,107 L247.079937,107 L247.079937,118.375452 Z" id="Fill-11" fill="#000000" mask="url(#mask-2)"></path>
            <polygon id="Fill-12" fill="#000000" mask="url(#mask-2)" points="243 126 245 126 245 109 243 109"></polygon>
            <path d="M243,107.925116 L241.321024,107 C240.518377,108.38692 239.640481,109.657634 238.679498,110.810633 C238.199791,109.965503 237.240376,108.694789 235.799686,107 L234.239854,108.154509 C235.519073,109.539919 236.558439,110.967586 237.359519,112.428455 C236.400105,113.430538 235.277652,114.393383 234,115.318499 C234.558091,115.934237 234.998607,116.471499 235.319979,116.936321 C235.940777,116.423206 236.229228,116.193813 236.211984,116.225506 C237.078906,115.428668 237.748302,114.775201 238.199791,114.278687 C238.679498,115.664098 239.040063,117.206461 239.281484,118.89974 C238.159032,120.673005 236.439296,122.443252 234.120711,124.213499 C234.197527,124.290466 234.360564,124.483639 234.59885,124.793017 C234.918655,125.176344 235.199268,125.523451 235.439122,125.83132 C237.279568,124.213499 238.679498,122.790359 239.640481,121.557374 C239.718864,123.019752 239.759624,124.637573 239.759624,126.40782 C239.759624,129.643463 238.839401,131.104331 236.998955,130.799481 C236.520815,130.799481 235.87807,130.758733 235.080125,130.681766 L234.360564,130.681766 C234.59885,131.451438 234.758753,132.224129 234.840272,132.992293 L237.359519,132.992293 C240.319282,133.147736 241.758404,130.951906 241.681589,126.40782 C241.758404,120.170454 241.079603,115.588639 239.640481,112.660866 C240.518377,111.815735 241.560878,110.388068 242.760146,108.38692 C242.83853,108.154509 242.918481,108.002083 243,107.925116" id="Fill-13" fill="#000000" mask="url(#mask-2)"></path>
            <path d="M296.810768,107 C295.188703,112.261914 292.920035,116.724304 290,120.385676 C290.081024,120.463386 290.324095,120.958045 290.729214,121.874135 C290.891262,122.329939 291.013592,122.597443 291.094616,122.673659 C292.068491,121.455693 292.715093,120.576964 293.042365,120.041955 C293.445896,119.509935 293.728685,119.088504 293.892321,118.783639 L293.892321,134 L296.081553,134 L296.081553,114.780041 C297.215887,112.569768 298.189762,110.204074 299,107.685947 L296.810768,107 Z" id="Fill-14" fill="#000000" mask="url(#mask-2)"></path>
            <path d="M309.749064,114.696704 L316.739607,114.696704 L316.739607,112.629941 L308.14588,112.629941 L308.14588,107 L305.967885,107 L305.967885,112.629941 L297.945975,112.629941 L297.945975,114.696704 L304.3647,114.696704 C302.605838,120.060982 299.817106,124.425649 296,127.795208 C296.380214,128.102896 296.914608,128.71527 297.603184,129.635333 C301.957678,125.11457 304.744914,120.136028 305.967885,114.696704 L305.967885,126.417366 L301.61339,126.417366 L301.61339,128.370059 L305.967885,128.370059 L305.967885,134 L308.14588,134 L308.14588,128.370059 L312.498877,128.370059 L312.498877,126.417366 L308.14588,126.417366 L308.14588,114.696704 C309.59638,120.518761 312.344696,125.345711 316.395319,129.174551 C317.083895,128.102896 317.616793,127.412474 318,127.106287 C314.332585,124.577242 311.584269,120.443716 309.749064,114.696704" id="Fill-15" fill="#000000" mask="url(#mask-2)"></path>
            <path d="M360.300271,107 L358.242431,107.446886 C358.315658,107.672527 358.43073,108.009524 358.584657,108.459341 C358.813306,109.131868 358.965739,109.65348 359.043449,110.027106 L346,110.027106 L346,111.823443 L354.923286,111.823443 C353.854763,112.720147 352.596447,113.505495 351.148337,114.178022 C350.15603,114.778755 349.163724,115.152381 348.174406,115.300366 L348.860353,117.317949 C349.241435,117.244689 349.736093,117.208059 350.348813,117.208059 C351.03476,117.133333 351.529418,117.093773 351.835778,117.093773 C357.783639,116.945788 363.160624,116.871062 367.96524,116.871062 C368.346322,117.093773 368.842475,117.47033 369.452206,117.991941 C369.98572,118.441758 370.405657,118.778755 370.712016,119 L371.970333,117.429304 C370.290585,116.161905 367.811313,114.365568 364.534012,112.047619 L363.274202,113.394139 C363.504345,113.545055 363.885426,113.804396 364.418941,114.178022 C364.876238,114.553114 365.219959,114.850549 365.448608,115.074725 C362.246029,115.074725 357.973432,115.152381 352.636796,115.300366 C354.237339,114.402198 356.105386,113.244689 358.242431,111.823443 L373,111.823443 L373,110.027106 L361.216361,110.027106 C360.833785,108.980952 360.530415,107.971429 360.300271,107" id="Fill-16" fill="#000000" mask="url(#mask-2)"></path>
            <path d="M352.19684,127.487242 L367.799687,127.487242 L367.799687,125.046476 L352.19684,125.046476 L352.19684,127.487242 Z M352.19684,123.184386 L367.799687,123.184386 L367.799687,120.859052 L352.19684,120.859052 L352.19684,123.184386 Z M350,134 L352.19684,134 L352.19684,129.347813 L367.801197,129.347813 L367.801197,130.394289 C367.876689,131.244836 367.337671,131.632139 366.182631,131.556197 C364.485554,131.556197 363.215765,131.516707 362.368736,131.440765 C362.599744,132.215371 362.75224,132.991495 362.830752,133.7661 C364.139797,133.7661 365.373349,133.728129 366.528388,133.650668 C368.91698,133.650668 370.072019,132.678615 369.996526,130.743621 L369.996526,119 L350,119 L350,134 Z" id="Fill-17" fill="#000000" mask="url(#mask-2)"></path>
            <path d="M410,111.439279 C408.319749,109.601201 406.880878,108.121964 405.680251,107 L404,108.320972 C405.840125,110.240533 407.159875,111.799687 407.960815,113 L410,111.439279 Z" id="Fill-18" fill="#000000" mask="url(#mask-2)"></path>
            <path d="M424.581042,113.924049 L424.581042,108 L413.185022,108 L413.185022,111.021249 C413.339967,113.601866 411.943947,115.656569 409,117.186935 C409.540787,117.592821 410.084612,118.194544 410.628437,119 C414.038736,116.98794 415.627677,114.326777 415.395261,111.021249 L415.395261,110.17631 L422.372323,110.17631 L422.372323,114.525772 C422.372323,116.462024 423.262494,117.430151 425.045876,117.430151 L428.769102,117.430151 C428.769102,116.70524 428.843536,115.98033 429,115.252261 L425.860094,115.252261 C425.00638,115.252261 424.581042,114.81163 424.581042,113.924049" id="Fill-19" fill="#000000" mask="url(#mask-2)"></path>
            <path d="M418.473559,127.194151 C416.502072,125.501357 414.964745,123.384986 413.861577,120.848055 L423.321933,120.848055 C422.21722,123.463371 420.601096,125.578233 418.473559,127.194151 M425.806377,120.848055 L425.806377,119 L410.312592,119 L410.312592,120.848055 L411.73095,120.848055 C412.91446,123.924631 414.530585,126.464576 416.580869,128.463371 C414.371445,129.771782 411.177821,130.962617 407,132.041905 C407.393988,132.423274 407.905401,133.078987 408.537327,134 C412.953087,132.54085 416.227052,131.194754 418.35459,129.96322 C420.720065,131.347 423.715921,132.616219 427.343704,133.772385 C427.422502,133.692493 427.581642,133.463371 427.81649,133.078987 C428.368074,132.308713 428.763607,131.809768 429,131.57763 C425.291874,130.88574 422.376361,129.848658 420.247279,128.463371 C422.612754,126.539946 424.463726,124.003015 425.806377,120.848055" id="Fill-20" fill="#000000" mask="url(#mask-2)"></path>
            <path d="M411,128.227302 C410.839838,127.312121 410.76209,126.476066 410.76209,125.711673 C410.046805,126.325278 409.054735,127.010544 407.785881,127.771951 C407.387809,128.076514 407.111025,128.267612 406.952418,128.340767 L406.952418,116 L401,116 L401,118.055799 L404.691494,118.055799 L404.691494,127.883923 C404.769243,128.875245 404.453584,129.714286 403.738299,130.399552 L405.167315,132 C405.405225,131.465522 406.714508,130.550341 409.095164,129.255948 C409.888198,128.875245 410.52418,128.531865 411,128.227302" id="Fill-21" fill="#000000" mask="url(#mask-2)"></path>
            <path d="M463.415211,129.25923 L463.415211,116 L457,116 L457,117.927377 L461.038805,117.927377 L461.038805,128.807732 C461.117967,129.713689 460.801319,130.465691 460.088863,131.074103 L461.513776,133 C462.226232,132.470045 464.285991,131.186607 467.693054,129.146726 C468.326348,128.769244 468.762515,128.504267 469,128.351794 C469,127.750784 468.959643,126.955852 468.880481,125.972919 C467.53473,126.730843 465.712456,127.8248 463.415211,129.25923" id="Fill-22" fill="#000000" mask="url(#mask-2)"></path>
            <polygon id="Fill-23" fill="#000000" mask="url(#mask-2)" points="476.556407 107 474.210709 107 474.210709 116.536298 466 116.536298 466 118.602946 474.210709 118.602946 474.210709 134 476.556407 134 476.556407 118.602946 485 118.602946 485 116.536298 476.556407 116.536298"></polygon>
            <path d="M463.912675,113 L466,111.444122 C464.852854,110.407837 463.132936,108.92598 460.841852,107 L459,108.442671 C460.554664,109.775036 462.192757,111.29463 463.912675,113" id="Fill-24" fill="#000000" mask="url(#mask-2)"></path>
            <path d="M528.153121,121.465428 L536.808316,121.465428 L536.808316,114.31965 L528.153121,114.31965 L528.153121,121.465428 Z M517.191684,121.465428 L525.845371,121.465428 L525.845371,114.31965 L517.191684,114.31965 L517.191684,121.465428 Z M528.153121,106 L525.845371,106 L525.845371,112.210659 L515,112.210659 L515,125.09724 L517.191684,125.09724 L517.191684,123.572889 L525.845371,123.572889 L525.845371,134 L528.153121,134 L528.153121,123.572889 L536.808316,123.572889 L536.808316,125.09724 L539,125.09724 L539,112.210659 L528.153121,112.210659 L528.153121,106 Z" id="Fill-25" fill="#000000" mask="url(#mask-2)"></path>
            <path d="M586,113.861419 C585.91659,113.632214 585.752979,113.331569 585.509166,112.949066 C583.706233,109.911361 582.233731,107.595502 581.088451,106 L579,107.025467 C580.719523,109.530346 582.233731,112.1915 583.544225,115 L586,113.861419 Z" id="Fill-26" fill="#000000" mask="url(#mask-2)"></path>
            <path d="M591.868951,115.234769 C591.563169,114.712705 591.332334,114.29916 591.180942,114 L589,114.89748 C590.759743,118.041594 592.327623,121.408612 593.705139,125 L596,123.879616 C595.081156,121.785495 593.705139,118.903879 591.868951,115.234769" id="Fill-27" fill="#000000" mask="url(#mask-2)"></path>
            <path d="M589.352617,127.575608 C589.274443,128.112074 589.23686,128.537028 589.23686,128.842934 C589.082015,130.304654 588.047717,130.958661 586.129454,130.803447 L580.720434,130.803447 C578.955512,130.880301 578.112137,130.074094 578.188808,128.381814 L578.188808,112 L576.00295,112 L576.00295,128.842934 C575.92628,131.688014 577.34393,133.072881 580.260411,132.996027 L586.359465,132.996027 C589.274443,133.072881 590.923608,132.034607 591.309967,129.882714 C591.538474,128.651554 591.768486,127.191341 592,125.497554 C591.38363,125.268501 590.61843,124.998761 589.698385,124.691347 C589.620211,125.458374 589.504454,126.421301 589.352617,127.575608" id="Fill-28" fill="#000000" mask="url(#mask-2)"></path>
            <path d="M569,126.084961 L571.064754,127 C572.152513,123.723473 573.129509,119.914044 574,115.573206 L571.933826,115 C571.282022,118.354149 570.303607,122.048638 569,126.084961" id="Fill-29" fill="#000000" mask="url(#mask-2)"></path>
            <polygon id="Fill-30" fill="#000000" mask="url(#mask-2)" points="195.168723 35 181 35 181 85 219 85 219 73.7874306 195.168723 73.7874306"></polygon>
            <polygon id="Fill-31" fill="#000000" mask="url(#mask-2)" points="239.902825 64.8575266 262.078343 64.8575266 262.078343 54.3561532 239.902825 54.3561532 239.902825 46.0009357 265.07194 46.0009357 265.07194 35 226 35 226 85 266 85 266 73.9990643 239.902825 73.9990643"></polygon>
            <path d="M340.771526,67.3216011 C339.569134,69.3923569 337.898892,70.9771191 335.759276,72.0713596 C333.619659,73.1686187 331.083817,73.713475 328.150226,73.713475 L319.279351,73.713475 L319.279351,46.286525 L328.150226,46.286525 C331.083817,46.286525 333.619659,46.8359092 335.759276,47.9286404 C337.898892,49.0258995 339.569134,50.5834943 340.771526,52.607462 C341.972393,54.6329389 342.574351,57.0961121 342.574351,60.0015093 C342.574351,62.8118208 341.972393,65.2508452 340.771526,67.3216011 M343.5131,38.0714199 C339.281109,36.0263221 334.399918,35 328.872575,35 L305,35 L305,85 L328.872575,85 C334.399918,85 339.281109,83.9782057 343.5131,81.9285801 C347.742043,79.881973 351.049001,76.9901594 353.4294,73.2501207 C355.8098,69.5115914 357,65.0712388 357,59.9275537 C357,54.8351847 355.8098,50.4280367 353.4294,46.7151654 C351.049001,43.0022941 347.742043,40.1210456 343.5131,38.0714199" id="Fill-32" fill="#000000" mask="url(#mask-2)"></path>
            <polygon id="Fill-33" fill="#000000" mask="url(#mask-2)" points="379.902825 64.8575266 402.078343 64.8575266 402.078343 54.3561532 379.902825 54.3561532 379.902825 46.0009357 405.07194 46.0009357 405.07194 35 366 35 366 85 406 85 406 73.9990643 379.902825 73.9990643"></polygon>
            <path d="M449.357927,59.1050096 C447.67865,58.0349451 445.844939,57.1761769 443.858294,56.534742 C441.871648,55.8917978 439.873008,55.3560109 437.863873,54.9288907 C435.851738,54.5002612 434.019526,54.0821966 432.362739,53.6792245 C430.707451,53.2747431 429.359531,52.7480118 428.318979,52.1065769 C427.278427,51.4636327 426.758151,50.5716608 426.758151,49.4276427 C426.758151,48.6669763 427.017539,47.9515876 427.539314,47.2844953 C428.059591,46.6189122 428.909725,46.069542 430.092716,45.6409125 C431.275707,45.2137923 432.836535,45.0009868 434.776701,45.0009868 C436.952265,45.0009868 439.198298,45.3088756 441.5178,45.9276717 C443.834304,46.547977 446.176296,47.5244674 448.542278,48.8556336 L452.800446,38.4281651 C450.386485,36.9521101 447.606681,35.8443142 444.462534,35.1077959 C441.315388,34.3682591 438.111266,34 434.84717,34 C429.974267,34 425.908016,34.7395368 422.642421,36.2125733 C419.378326,37.6916468 416.941874,39.6416091 415.334565,42.0700064 C413.724258,44.4984037 412.920604,47.1909212 412.920604,50.1430313 C412.920604,52.8083822 413.428885,55.023974 414.446947,56.7867882 C415.46351,58.5450746 416.799435,59.9758519 418.456222,61.0700644 C420.11151,62.1657863 421.955717,63.0471934 423.991841,63.7127765 C426.023467,64.3813781 428.022107,64.9156557 429.986262,65.320137 C431.950417,65.7261276 433.770634,66.1547571 435.449911,66.6045162 C437.129189,67.0572938 438.489104,67.606664 439.531155,68.2496082 C440.570208,68.8910431 441.091984,69.7618854 441.091984,70.8545887 C441.091984,71.7118477 440.819101,72.4513845 440.276335,73.0701805 C439.730569,73.6904859 438.880435,74.1643931 437.721434,74.4979393 C436.560933,74.8329947 434.989609,74.9990132 433.002964,74.9990132 C430.116706,74.9990132 427.218453,74.5326522 424.309704,73.6059674 C421.400955,72.6777733 418.835559,71.4990422 416.610516,70.0697742 L412,80.5696871 C414.316503,82.1423347 417.355696,83.4402972 421.117577,84.4635746 C424.877959,85.486852 428.815266,86 432.930995,86 C437.851878,86 441.942118,85.2604632 445.207713,83.7844082 C448.471809,82.3083532 450.918756,80.3432983 452.550054,77.8907529 C454.184351,75.4382075 455,72.7592732 455,69.8569687 C455,67.2384048 454.478224,65.057526 453.437672,63.3203692 C452.39712,61.5817031 451.037205,60.1765833 449.357927,59.1050096" id="Fill-34" fill="#000000" mask="url(#mask-2)"></path>
            <polygon id="Fill-35" fill="#000000" mask="url(#mask-2)" points="463 85 477 85 477 35 463 35"></polygon>
            <path d="M504.320228,49.6057352 C505.564953,48.3455042 507.073803,47.3825971 508.845259,46.7139955 C510.616716,46.0484124 512.580953,45.7133569 514.736452,45.7133569 C517.178846,45.7133569 519.393546,46.1676438 521.38207,47.0716898 C523.369076,47.977245 525.22402,49.3823649 526.94842,51.2870494 L536,43.1430893 C533.557606,40.1909793 530.468563,37.9286005 526.734388,36.3574621 C522.998695,34.7863238 518.783327,34 514.089802,34 C509.970066,34 506.210085,34.6308701 502.811379,35.8941197 C499.409636,37.1543507 496.454173,38.9413131 493.938917,41.2489696 C491.42518,43.5596447 489.473087,46.3095141 488.084156,49.5000871 C486.695225,52.69066 486,56.1891217 486,60 C486,63.809369 486.695225,67.30934 488.084156,70.4984037 C489.473087,73.6904859 491.413036,76.4403553 493.902486,78.7480118 C496.393455,81.0586869 499.314005,82.8426308 502.667173,84.1058803 C506.018823,85.3661113 509.707459,86 513.730046,86 C517.370108,86 521.069371,85.4506298 524.829351,84.354908 C528.589332,83.2606954 531.928838,81.6895571 534.850906,79.6399837 L534.850906,58.9284263 L522.207839,58.9284263 L522.207839,72.670227 C521.728164,72.8890695 521.24849,73.0837639 520.771851,73.2482731 C518.759039,73.9380043 516.699171,74.2851338 514.592246,74.2851338 C512.485321,74.2851338 510.557515,73.9380043 508.808828,73.2482731 C507.061659,72.5585418 505.564953,71.5805422 504.320228,70.3203111 C503.072467,69.0600801 502.10401,67.5462936 501.410304,65.7834794 C500.716597,64.0236838 500.368985,62.0948511 500.368985,60 C500.368985,57.8553434 500.716597,55.9053811 501.410304,54.1425669 C502.10401,52.3797527 503.072467,50.8689847 504.320228,49.6057352" id="Fill-36" fill="#000000" mask="url(#mask-2)"></path>
            <polygon id="Fill-37" fill="#000000" mask="url(#mask-2)" points="578.997013 35 578.997013 61.6300411 556.765498 35 545 35 545 85 558.931302 85 558.931302 58.3563753 581.234502 85 593 85 593 35"></polygon>
            <path d="M291,60 C291,63.3142557 288.314256,66 285,66 C281.685744,66 279,63.3142557 279,60 C279,56.6857443 281.685744,54 285,54 C288.314256,54 291,56.6857443 291,60" id="Fill-38" fill="#000000" mask="url(#mask-2)"></path>
            <path d="M74.72342,98.5741243 C74.9680748,85.9902257 85.2964348,68.9583744 97.7496673,60.6093981 C102.914602,57.1480328 106.563282,56.5829736 107.756352,57.0437839 L107.759372,57.0452948 C107.88472,57.0936421 108.084068,57.1933584 108.389132,57.4985508 C109.375302,58.4851381 110.175716,63.9362975 106.12834,73.7100086 C100.733852,86.7380982 89.7666711,100.616798 77.1548661,110.009774 C74.5950517,105.570887 74.6781135,100.92048 74.72342,98.5741243 M104.056325,120.691508 C115.239467,109.761994 124.46688,96.5344721 129.847776,83.5381105 C137.569505,64.8911569 136.394558,49.1918784 126.543425,39.3365812 C123.781242,36.5732301 120.587138,34.4746547 117.051724,33.1027997 L117.051724,33.1027997 C117.050214,33.1027997 117.050214,33.1027997 117.050214,33.1027997 L117.047194,33.1012889 L117.047194,33.1012889 C107.093367,29.2319931 95.1626691,31.4242415 83.456993,39.2731253 C66.7102195,50.5017884 49.5149121,74.3067958 49.0542965,98.0755427 C48.8896831,106.595245 50.575083,114.256783 53.8779231,120.838061 C52.0686856,121.140232 50.2700196,121.315491 48.4970272,121.315491 C33.8116971,121.315491 29.5211764,114.28549 27.5714889,108.999013 C20.5731529,90.0272262 32.4328708,53.3089541 60.8641774,25.4956524 C63.2352149,23.5149235 65.6455179,21.3151209 68.1147194,18.8448754 L59.0368173,9.76464603 L50.6989206,0 C48.2629439,2.08044524 45.9009677,4.23643315 43.6114819,6.45738777 C31.6490693,16.1691539 22.1483071,16.6496053 4.88806044,16.6496053 L4.88806044,42.3341145 C8.79045587,42.3341145 12.5146459,42.2887889 16.1149984,42.122595 C1.25448328,68.5489332 -4.23212762,96.9680871 3.48507076,117.890386 C10.3082219,136.389276 26.7136868,147 48.4970272,147 C58.2228115,147 67.2569173,144.502559 75.2867302,140.871978 C81.2626507,143.577917 88.1311083,145.351659 95.7878981,146.046651 C98.2208543,146.265725 100.694586,146.376018 103.203053,146.376018 C116.859927,146.374507 131.385175,143.1579 144,137.446873 L144,108.060773 C134.681974,114.963863 119.233985,120.549488 104.056325,120.691508" id="Fill-39" fill="#000000" mask="url(#mask-2)"></path>
        </g>
    </g>
</svg>